<?xml version="1.0" ?><svg xmlns="http://www.w3.org/2000/svg" id="Layer_4" data-name="Layer 4" viewBox="0 0 64 64"><defs><style>
      .cls-1 {
        fill: none;
        stroke: #000;
        stroke-linecap: round;
        stroke-linejoin: round;
        stroke-width: 3px;
      }
    </style></defs><path d="m37.77,25c1.9,0,2.77,1.57,2.77,3.02,0,1.54-1.02,2.57-3.7,4.9-1.46,1.27-3.18,2.77-4.83,4.74-1.65-1.97-3.37-3.47-4.83-4.74-2.69-2.34-3.7-3.36-3.7-4.9,0-1.46.87-3.02,2.77-3.02s2.94,2.26,2.97,2.33c.45,1.16,1.55,1.93,2.79,1.93s2.34-.75,2.79-1.9c.04-.1,1-2.36,2.98-2.36m0-3c-4.13,0-5.77,4.25-5.77,4.25,0,0-1.64-4.25-5.77-4.25-3.41,0-5.77,2.72-5.77,6.02,0,5.27,6.28,6.89,10.72,13.55.19.29.5.43.81.43s.62-.14.81-.43c4.44-6.65,10.72-8.28,10.72-13.55,0-3.3-2.35-6.02-5.77-6.02h0Z"/><polyline class="cls-1" points="8 32.04 8 56 32.08 56"/><polyline class="cls-1" points="56.08 32 56.08 8.04 32 8.04"/></svg>